# AST/ASF file generated using VICON BodyLanguage
# -----------------------------------------------
:version 1.10
:name VICON
:units
  mass 1.0
  length 0.45
  angle deg
:documentation
   .ast/.asf automatically generated from VICON data using
   VICON BodyBuilder and BodyLanguage model FoxedUp or BRILLIANT.MOD
:root
   order TX TY TZ RX RY RZ
   axis XYZ
   position 0 0 0  
   orientation 0 0 0 
:bonedata
  begin
     id 1 
     name lhipjoint
     direction 0.57768 -0.667037 0.470475 
     length 2.36008 
     axis 0 0 0  XYZ
  end
  begin
     id 2 
     name lfemur
     direction 0.34202 -0.939693 0  
     length 6.97235  
     axis 0 0 20  XYZ
    dof rx ry rz
    limits (-160.0 20.0)
           (-70.0 70.0)
           (-60.0 70.0)
  end
  begin
     id 3 
     name ltibia
     direction 0.34202 -0.939693 0   
     length 6.93428   
     axis 0 0 20   XYZ
    dof rx
    limits (-10.0 170.0)
  end
  begin
     id 4 
     name lfoot
     direction 0.133018 -0.365463 0.921272   
     length 2.18603   
     axis -90 7.62852e-016 20   XYZ
    dof rx rz
    limits (-45.0 90.0)
           (-70.0 20.0)
  end
  begin
     id 5 
     name ltoes
     direction 1.53519e-011 -4.22055e-011 1   
     length 1.07924   
     axis -90 7.62852e-016 20   XYZ
    dof rx
    limits (-90.0 20.0)
  end
  begin
     id 6 
     name rhipjoint
     direction -0.577712 -0.667019 0.470462   
     length 2.36015  
     axis 0 0 0  XYZ 
  end
  begin
     id 7 
     name rfemur
     direction -0.34202 -0.939693 0   
     length 6.71195   
     axis 0 0 -20   XYZ
    dof rx ry rz
    limits (-160.0 20.0)
           (-70.0 70.0)
           (-70.0 60.0)
  end
  begin
     id 8 
     name rtibia
     direction -0.34202 -0.939693 0   
     length 7.04592   
     axis 0 0 -20   XYZ
    dof rx
    limits (-10.0 170.0)
 end
 begin
     id 9 
     name rfoot
     direction -0.113796 -0.312651 0.943027   
     length 2.03846  
     axis -90 -7.62852e-016 -20   XYZ
    dof rx rz
    limits (-45.0 90.0)
           (-20.0 70.0)
  end
  begin
     id 10 
     name rtoes
     direction -1.53586e-011 -4.218e-011 1   
     length 1.01562   
     axis -90 -7.62852e-016 -20   XYZ
    dof rx
    limits (-90.0 20.0)
  end
  begin
     id 11 
     name lowerback
     direction -0.0417299 0.991937 -0.119667   
     length 2.05257   
     axis 0 0 0   XYZ
    dof rx ry rz
    limits (-20.0 45.0)
           (-30.0 30.0)
           (-30.0 30.0)
  end
  begin
     id 12 
     name upperback
     direction -0.00017666 0.999999 0.00105178   
     length 2.05693   
     axis 0 0 0   XYZ
    dof rx ry rz
    limits (-20.0 45.0)
           (-30.0 30.0)
           (-30.0 30.0)
  end
  begin
     id 13 
     name thorax
     direction 0.0185169 0.998203 0.0569866   
     length 2.0932   
     axis 0 0 0   XYZ
    dof rx ry rz
    limits (-20.0 45.0)
           (-30.0 30.0)
           (-30.0 30.0)
  end
  begin
     id 14 
     name lowerneck
     direction -0.0212406 0.982645 0.184277   
     length 1.72509   
     axis 0 0 0   XYZ
    dof rx ry rz
    limits (-20.0 45.0)
           (-30.0 30.0)
           (-30.0 30.0)
  end
  begin
     id 15 
     name upperneck
     direction 0.00528579 0.965323 -0.261004   
     length 1.76294   
     axis 0 0 0   XYZ
    dof rx ry rz
    limits (-20.0 45.0)
           (-30.0 30.0)
           (-30.0 30.0)
  end
  begin
     id 16
     name head
     direction 0.00695421 0.994078 -0.108445  
     length 1.78678  
     axis 0 0 0   XYZ
    dof rx ry rz
    limits (-20.0 45.0)
           (-30.0 30.0)
           (-30.0 30.0)
  end
  begin
     id 17 
     name lclavicle
     direction 0.97277 0.211305 -0.095232  
     length 3.84823  
     axis 0 0 0   XYZ
    dof ry rz
    limits (-20.0 10.0)
           (0.0 20.0)
  end
  begin
     id 18 
     name lhumerus
     direction 1 -4.48957e-011 -1.98313e-027   
     length 4.97185   
     axis 180 -30 -90   XYZ
    dof rx ry rz
    limits (-60.0 90.0)
           (-90.0 90.0)
           (-90.0 90.0)
  end
  begin
     id 19
     name lradius
     direction 1 -4.4898e-011 7.31063e-027   
     length 3.35811   
     axis 180 -30 -90   XYZ
    dof rx
    limits (-10.0 170.0)
  end
  begin
     id 20
     name lwrist
     direction 1 -4.48938e-011 9.95048e-027   
     length 1.67905   
     axis -8.75986e-015 90 90   XYZ
    dof ry
    limits (-180.0 0.0)
 end
  begin
     id 21 
     name lhand
     direction 1 -4.4901e-011 1.9901e-026   
     length 0.622776   
     axis -1.26985e-014 90 90   XYZ
    dof rx rz
    limits (-90.0 90.0)
           (-45.0 45.0)
  end
  begin
     id 22 
     name lfingers
     direction 1 -4.48961e-011 3.98019e-026   
     length 0.502098   
     axis -2.5397e-014 90 90   XYZ
    dof rx
    limits (0.0 90.0)
  end
  begin
     id 23
     name lthumb
     direction 0.707107 -6.34933e-011 0.707107   
     length 0.720915   
     axis -90 45 2.85299e-015   XYZ
    dof rx rz
    limits (-45.0 45.0)
           (-45.0 45.0)
  end
  begin
     id 24 
     name rclavicle
     direction -0.990867 0.133739 -0.0172226   
     length 3.78845  
     axis 0 0 0   XYZ 
    dof ry rz
    limits (-10.0 20.0)
           (-20.0 0.0)
  end
  begin
     id 25 
     name rhumerus
     direction -1 -4.48972e-011 -1.99267e-027  
     length 4.96493   
     axis 180 30 90   XYZ
    dof rx ry rz
    limits (-90.0 60.0)
           (-90.0 90.0)
           (-90.0 90.0)
  end
  begin
     id 26 
     name rradius
     direction -1 -4.48969e-011 8.96093e-027   
     length 3.34929   
     axis 180 30 90   XYZ
    dof rx
    limits (-10.0 170.0)
  end
  begin
     id 27 
     name rwrist
     direction -1 -4.48953e-011 9.95048e-027   
     length 1.67464   
     axis -8.75986e-015 -90 -90   XYZ
    dof ry
    limits (-180.0 0.0)
  end
  begin
     id 28
     name rhand
     direction -1 -4.49001e-011 1.9901e-026   
     length 0.638041   
     axis -1.26985e-014 -90 -90   XYZ
    dof rx rz
    limits (-90.0 90.0)
           (-45.0 45.0)
  end
  begin
     id 29
     name rfingers
     direction -1 -4.48967e-011 3.98019e-026   
     length 0.514405   
     axis -2.5397e-014 -90 -90   XYZ
    dof rx
    limits (0.0 90.0)
  end
  begin
     id 30
     name rthumb
     direction -0.707107 -6.34904e-011 0.707107   
     length 0.738586   
     axis -90 -45 -2.85299e-015   XYZ
    dof rx rz
    limits (-45.0 45.0)
           (-45.0 45.0)
  end
:hierarchy
  begin
    root lhipjoint rhipjoint lowerback
    lhipjoint lfemur
    lfemur ltibia
    ltibia lfoot
    lfoot ltoes
    rhipjoint rfemur
    rfemur rtibia
    rtibia rfoot
    rfoot rtoes
    lowerback upperback
    upperback thorax
    thorax lowerneck lclavicle rclavicle
    lowerneck upperneck
    upperneck head
    lclavicle lhumerus
    lhumerus lradius
    lradius lwrist
    lwrist lhand lthumb
    lhand lfingers
    rclavicle rhumerus
    rhumerus rradius
    rradius rwrist
    rwrist rhand rthumb
    rhand rfingers
  end

#!OML:ASF E:\Mandelcareful walks\Project 1\Capture day 1\Session 1\Subject1.ASF
:FULLY-SPECIFIED
:DEGREES
50
root -28.3517 16.4404 -2.663 -68.2072 87.4499 270.922
lowerback -0.482855 1.96595 -7.36366
upperback 3.47055 2.94006 -1.81978
thorax 3.60678 1.29932 2.3325
lowerneck -19.5834 7.93623 4.18559
upperneck 30.4195 12.9989 -5.8404
head 14.4279 5.4678 -0.622863
rclavicle 2.78299e-015 7.95139e-016
rhumerus -18.7476 38.5742 -100.065
rradius 63.8529
rwrist -3.34062
rhand -14.0342 -32.9137
rfingers 7.12502
rthumb 12.0961 -62.5441
lclavicle 2.78299e-015 7.95139e-016
lhumerus -25.9718 -43.3922 85.6283
lradius 54.5448
lwrist 12.6488
lhand -14.9485 -6.02404
lfingers 7.12502
lthumb 11.2144 23.6562
rfemur -36.4345 -2.71169 10.4826
rtibia 25.3552
rfoot -14.9908 -12.0468
rtoes -9.82103
lfemur -36.7487 16.762 -16.5358
ltibia 36.9703
lfoot -17.7922 13.9822
ltoes -4.44079
51
root -28.4288 16.4313 -2.7336 -54.7701 87.124 284.254
lowerback -0.0238778 1.98104 -7.70081
upperback 3.68558 2.94141 -1.77841
thorax 3.55723 1.28899 2.54743
lowerneck -19.6318 8.04261 4.27863
upperneck 30.2482 13.2511 -6.29508
head 14.4324 5.52063 -0.768247
rclavicle 1.15295e-014 3.97569e-015
rhumerus -18.4265 35.4455 -99.4228
rradius 60.5348
rwrist -2.25976
rhand -14.2405 -32.5522
rfingers 7.12502
rthumb 11.8972 -62.1942
lclavicle 1.15295e-014 3.97569e-015
lhumerus -26.3319 -44.2263 85.2136
lradius 54.6318
lwrist 12.2115
lhand -14.5637 -6.52504
lfingers 7.12502
lthumb 11.5855 23.1347
rfemur -37.052 -3.64873 11.3245
rtibia 26.5297
rfoot -14.8992 -12.5607
rtoes -9.49646
lfemur -37.4016 16.9976 -16.6962
ltibia 37.626
lfoot -18.1381 14.0984
ltoes -1.95927
52
root -28.4954 16.4242 -2.79269 -47.312 86.9418 291.864
lowerback 0.663769 2.00402 -8.19344
upperback 3.93171 2.93405 -1.72622
thorax 3.40653 1.27355 2.85063
lowerneck -19.5479 8.09289 4.23189
upperneck 29.9374 13.3662 -6.53224
head 14.3047 5.53892 -0.838897
rclavicle 9.93923e-015 6.36111e-015
rhumerus -18.1347 32.6284 -98.6769
rradius 57.3657
rwrist -1.59315
rhand -20.9399 -27.6206
rfingers 7.12502
rthumb 5.43237 -57.531
lclavicle 9.93923e-015 6.36111e-015
lhumerus -26.8499 -45.0489 85.0187
lradius 54.9638
lwrist 12.0094
lhand -14.3062 -7.20086
lfingers 7.12502
lthumb 11.8339 22.4448
rfemur -37.2114 -4.50273 11.9067
rtibia 27.8473
rfoot -14.8005 -12.7287
rtoes -9.27045
lfemur -37.7204 17.1442 -16.9381
ltibia 38.1832
lfoot -18.4306 14.2483
ltoes -2.39471
53
root -28.5579 16.4143 -2.84307 -42.7295 86.609 296.459
lowerback 1.36603 1.98153 -8.17196
upperback 4.00105 2.84569 -1.85736
thorax 3.09974 1.24634 2.67558
lowerneck -19.5028 8.19851 4.21963
upperneck 29.6825 13.4648 -6.51703
head 14.1869 5.5841 -0.817212
rclavicle -2.94201e-014 -3.26007e-014
rhumerus -18.1937 30.2359 -98.4725
rradius 54.4841
rwrist -1.57281
rhand -14.5701 -33.8509
rfingers 7.12502
rthumb 11.5793 -63.511
lclavicle -2.94201e-014 -3.26007e-014
lhumerus -27.6527 -45.7815 84.6883
lradius 55.5977
lwrist 12.1278
lhand -13.962 -7.31859
lfingers 7.12502
lthumb 12.1657 22.3077
rfemur -37.4443 -5.1752 12.609
rtibia 29.2682
rfoot -14.608 -12.5705
rtoes -8.68241
lfemur -38.2155 17.4108 -17.0601
ltibia 38.6831
lfoot -18.451 14.424
ltoes -2.0979
54
root -28.6203 16.3999 -2.88777 -40.8516 86.2783 298.184
lowerback 1.90813 1.9487 -8.05
upperback 4.02911 2.75235 -1.92879
thorax 2.84099 1.2158 2.51388
lowerneck -19.5319 8.31986 4.15408
upperneck 29.4346 13.5924 -6.47291
head 14.0836 5.637 -0.767133
rclavicle 3.10104e-014 7.95139e-015
rhumerus -18.3248 28.2641 -98.1419
rradius 51.9777
rwrist -2.12051
rhand -14.2804 -34.2702
rfingers 7.12502
rthumb 11.8588 -63.9144
lclavicle 3.10104e-014 7.95139e-015
lhumerus -28.3483 -46.4314 84.4289
lradius 56.3287
lwrist 12.5011
lhand -13.6632 -7.53688
lfingers 7.12502
lthumb 12.4538 22.0721
rfemur -37.8696 -5.95902 13.4231
rtibia 30.7362
rfoot -14.1001 -12.1133
rtoes -8.54053
lfemur -38.9121 17.5815 -17.1303
ltibia 39.1394
lfoot -18.3453 14.6321
ltoes 0.745505
55
root -28.6792 16.3805 -2.93359 -39.1474 86.2703 299.712
lowerback 2.39971 1.89805 -8.1519
upperback 4.06799 2.64005 -1.9379
thorax 2.61372 1.16673 2.54393
lowerneck -19.5396 8.40874 4.10774
upperneck 29.1425 13.761 -6.70073
head 13.9895 5.67781 -0.818607
rclavicle 8.74653e-015 2.22639e-014
rhumerus -18.5848 26.6493 -97.522
rradius 49.896
rwrist -3.01145
rhand -13.5104 -35.4943
rfingers 7.12502
rthumb 12.6012 -65.0942
lclavicle 8.74653e-015 2.22639e-014
lhumerus -29.0007 -47.0295 84.5067
lradius 57.0111
lwrist 12.887
lhand -13.5876 -8.17495
lfingers 7.12502
lthumb 12.5268 21.4295
rfemur -38.2244 -7.00735 13.912
rtibia 32.1983
rfoot -13.657 -11.0948
rtoes -8.83417
lfemur -39.6203 17.5122 -17.4908
ltibia 39.5787
lfoot -18.3989 14.8236
ltoes 1.03319
56
root -28.7318 16.3655 -2.95377 -35.0624 86.032 303.83
lowerback 2.99865 2.02888 -8.59435
upperback 4.14268 2.75048 -1.79751
thorax 2.32256 1.21826 2.91045
lowerneck -19.483 8.41016 4.08863
upperneck 28.7266 13.8478 -7.14046
head 13.8481 5.66714 -0.974899
rclavicle -7.95139e-015 -1.43125e-014
rhumerus -19.0983 25.5438 -96.7975
rradius 48.2162
rwrist -4.40387
rhand -12.961 -36.2214
rfingers 7.12502
rthumb 13.1308 -65.788
lclavicle -7.95139e-015 -1.43125e-014
lhumerus -29.557 -47.5764 84.8509
lradius 57.5967
lwrist 13.3178
lhand -13.171 -8.35737
lfingers 7.12502
lthumb 12.9283 21.2221
rfemur -38.3151 -7.33043 14.2872
rtibia 33.6149
rfoot -13.3339 -10.0266
rtoes -9.8613
lfemur -39.9787 17.9859 -17.7242
ltibia 39.9626
lfoot -18.4756 14.7092
ltoes 0.47081
57
root -28.7869 16.3545 -2.97298 -34.6704 85.8102 304.248
lowerback 3.60344 2.09597 -8.68513
upperback 4.27753 2.78204 -1.65046
thorax 2.11113 1.23625 3.09121
lowerneck -19.6211 8.43582 3.98247
upperneck 28.3056 13.9243 -7.41326
head 13.7225 5.65615 -1.04595
rclavicle -7.95139e-016 -5.56597e-015
rhumerus -19.6052 25.0638 -96.1009
rradius 46.9075
rwrist -6.14232
rhand -12.4748 -36.1427
rfingers 7.12502
rthumb 13.5994 -65.6785
lclavicle -7.95139e-016 -5.56597e-015
lhumerus -29.7486 -48.0087 84.9875
lradius 58.1474
lwrist 13.7947
lhand -12.3626 -7.60015
lfingers 7.12502
lthumb 13.7075 21.9284
rfemur -38.3609 -7.505 14.7102
rtibia 34.9186
rfoot -13.0178 -9.12821
rtoes -10.9948
lfemur -40.3984 18.2752 -17.7683
ltibia 40.3436
lfoot -18.4466 14.6501
ltoes 0.946331
58
root -28.8373 16.3443 -2.98994 -33.1675 85.7606 305.766
lowerback 4.0357 2.19802 -8.718
upperback 4.53677 2.89826 -1.67549
thorax 2.12847 1.29122 3.06805
lowerneck -19.9952 8.44723 3.95268
upperneck 27.9566 13.8993 -7.53442
head 13.6612 5.61609 -1.07996
rclavicle 7.95139e-016 -1.43125e-014
rhumerus -19.8954 24.7844 -95.4436
rradius 45.8299
rwrist -7.83488
rhand -11.8214 -35.8672
rfingers 7.12502
rthumb 14.2291 -65.3598
lclavicle 7.95139e-016 -1.43125e-014
lhumerus -29.6328 -48.6991 84.7963
lradius 58.8083
lwrist 14.3359
lhand -11.9163 -7.22999
lfingers 7.12502
lthumb 14.1377 22.269
rfemur -38.3135 -7.76648 14.8942
rtibia 36.012
rfoot -12.8161 -8.27648
rtoes -10.9915
lfemur -40.8527 18.4305 -18.0141
ltibia 40.7819
lfoot -18.3811 14.6918
ltoes -0.789623
59
root -28.8864 16.3274 -2.99907 -34.1176 85.6464 304.658
lowerback 4.28858 2.25973 -8.60064
upperback 4.69336 2.96728 -1.56232
thorax 2.14187 1.3241 3.11103
lowerneck -20.0779 8.42524 3.85253
upperneck 27.5153 13.884 -7.75221
head 13.5054 5.57847 -1.14997
rclavicle -7.95139e-016 2.14687e-014
rhumerus -20.3903 24.872 -94.9008
rradius 44.781
rwrist -9.14483
rhand -11.0704 -36.0491
rfingers 7.12502
rthumb 14.9527 -65.4893
lclavicle -7.95139e-016 2.14687e-014
lhumerus -29.6972 -49.204 84.9051
lradius 59.4149
lwrist 14.7502
lhand -11.336 -7.57056
lfingers 7.12502
lthumb 14.6968 21.8885
rfemur -38.3755 -8.07254 15.3339
rtibia 36.9556
rfoot -12.7989 -7.61953
rtoes -9.90501
lfemur -41.4815 18.5102 -18.0298
ltibia 41.1782
lfoot -18.3174 14.6985
ltoes -2.49536
